<svg width="36" height="43" viewBox="0 0 36 43" fill="none" xmlns="http://www.w3.org/2000/svg">
<path d="M26.0708 5.27947C22.4289 1.41468 16.0552 0.254715 11.2956 2.58721C9.92474 3.25886 8.66292 4.14151 7.70156 5.34591C6.782 6.49694 6.15965 7.82018 5.78213 9.24081C5.04603 12.0103 5.41174 15.0126 6.36512 17.6808C7.41788 20.6279 9.10009 23.3012 10.7289 25.9533C12.4622 28.7743 14.2085 31.5873 15.9502 34.4029C16.3816 35.1015 16.8192 35.7956 17.2567 36.4906C17.7815 37.3244 19.0741 37.5784 19.8657 36.9848C19.9408 36.9283 20.0109 36.8682 20.0759 36.8044C20.26 36.866 20.4697 36.8497 20.6589 36.7116C22.9179 35.0673 24.5329 32.5534 25.8543 30.1242C27.1955 27.6584 28.1275 24.9257 28.7495 22.1922C29.3879 19.3847 29.7215 16.4111 29.5099 13.5333C29.2832 10.4516 28.2018 7.54094 26.0716 5.28021L26.0708 5.27947ZM26.2457 16.4396C26.2405 16.7531 26.2304 17.0661 26.2156 17.3794C26.2113 17.467 26.2054 17.5539 26.2019 17.6415C26.1948 17.8133 26.2064 17.6027 26.2088 17.5457C26.2031 17.7159 26.1848 17.8877 26.1703 18.0569C26.1163 18.7126 26.0413 19.3657 25.947 20.0161C25.7617 21.2944 25.4987 22.5605 25.1625 23.8068C24.9938 24.4329 24.8023 25.0517 24.6001 25.6672C24.5748 25.7387 24.5502 25.8101 24.5248 25.8807C24.4734 26.0253 24.4212 26.1699 24.3674 26.3138C24.2531 26.6221 24.134 26.9283 24.0099 27.2333C23.0335 29.6384 21.8869 31.9745 20.5205 34.1834C20.4732 34.2604 20.4283 34.338 20.3826 34.4157C20.3735 34.4003 20.3644 34.3841 20.3545 34.3688C18.6897 31.7264 16.9918 29.1039 15.304 26.4759C13.7012 23.9788 11.9839 21.5235 10.5941 18.897C10.5638 18.8399 10.4377 18.5901 10.4379 18.594C10.3848 18.4856 10.3309 18.3773 10.2794 18.268C10.1258 17.9448 9.98296 17.616 9.84873 17.2842C9.58107 16.6207 9.34755 15.9427 9.161 15.251C9.12004 15.0993 9.08146 14.9474 9.04522 14.7946C9.03144 14.7347 9.01767 14.6748 9.00395 14.6157C8.9317 14.302 9.00451 14.6693 9.02121 14.7026C8.90082 14.466 8.91022 14.0521 8.879 13.7884C8.80498 13.1753 8.77446 12.556 8.79196 11.9381C8.79403 11.8763 8.79615 11.8153 8.79822 11.7535C8.80852 11.4325 8.78498 11.8041 8.79078 11.8413C8.76824 11.7132 8.81637 11.5448 8.83114 11.4133C8.86582 11.1097 8.9126 10.8078 8.97312 10.508C9.033 10.2107 9.10662 9.91568 9.19335 9.62532C9.20373 9.59096 9.24637 9.50389 9.24739 9.46138C9.29593 9.33305 9.34531 9.20547 9.39958 9.07915C9.51017 8.82156 9.63307 8.56871 9.76845 8.323C9.83651 8.19972 9.91376 8.0822 9.98188 7.95972C9.98188 7.95972 9.98188 7.95972 9.98182 7.95892C10.0254 7.89741 10.069 7.8351 10.1143 7.77428C10.2881 7.54189 10.4754 7.31898 10.6748 7.10804C10.7774 6.99996 10.8878 6.89934 10.9905 6.79205C11.0329 6.74745 11.0411 6.73807 11.0304 6.74602C11.0745 6.71411 11.1195 6.68373 11.146 6.66266C11.3782 6.47585 11.6192 6.30123 11.8691 6.13961C11.9944 6.05877 12.1215 5.98021 12.2505 5.90553C12.3242 5.86273 12.3997 5.82302 12.4734 5.78023C12.481 5.77569 12.4856 5.77296 12.4918 5.76933C13.057 5.51438 13.6233 5.28499 14.2218 5.11741C14.3668 5.07684 14.5119 5.03946 14.6581 5.00521C14.6966 4.99612 14.7257 4.98928 14.7492 4.98362C14.7579 4.98222 14.7674 4.98075 14.7776 4.97844C15.0886 4.92546 15.3984 4.87817 15.7126 4.84739C16.2466 4.79643 16.7783 4.79289 17.3131 4.81075C17.3541 4.81429 17.3951 4.81783 17.4361 4.82137C17.5889 4.83631 17.7411 4.8537 17.8927 4.87433C18.1774 4.91288 18.4612 4.96271 18.7425 5.02231C19.0052 5.07762 19.2653 5.14192 19.5236 5.21515C19.6369 5.24727 19.7496 5.28263 19.8622 5.3172C19.9181 5.33892 19.9784 5.35553 20.0333 5.37651C20.5697 5.57685 21.0913 5.81666 21.5916 6.0948C21.8201 6.22137 22.0402 6.39818 22.2762 6.5066C22.2027 6.4725 22.1565 6.45091 22.1284 6.43766C22.1805 6.46284 22.2824 6.51578 22.3354 6.55372C22.4742 6.65372 22.61 6.75635 22.7436 6.86232C23.1563 7.19063 23.5347 7.55257 23.897 7.93566C23.9275 7.97276 23.9588 8.00902 23.9894 8.04612C24.0732 8.14917 24.1548 8.25318 24.2349 8.35969C24.4181 8.60315 24.5891 8.85466 24.7478 9.11504C24.8218 9.2364 24.8935 9.35952 24.9621 9.48365C24.9851 9.52609 25.0096 9.56842 25.0326 9.61166C25.0364 9.621 25.0404 9.63194 25.047 9.64669C25.1805 9.9681 25.3286 10.2805 25.4466 10.6086C25.5565 10.9132 25.654 11.2227 25.7398 11.5354C25.7891 11.7146 25.832 11.895 25.8759 12.0761C25.8883 12.1281 25.8959 12.3278 25.8888 12.124C25.8803 11.8764 25.9132 12.2553 25.9226 12.3107C26.1668 13.6774 26.2639 15.0545 26.2427 16.4422L26.2457 16.4396Z" fill="#F8F9FA"/>
<path d="M22.1327 6.43683C22.0856 6.41457 22.0971 6.41935 22.1327 6.43683V6.43683Z" fill="#F8F9FA"/>
<path d="M18.6147 9.333C18.4159 9.33488 18.2305 9.4023 18.072 9.51189C18.0306 9.46833 17.9794 9.43267 17.9184 9.40571C17.1926 9.08968 16.4659 8.97713 15.6948 9.20163C14.9652 9.41441 14.2538 9.87498 13.8051 10.4942C12.8012 11.8793 12.7485 13.7866 13.6698 15.2301C14.5364 16.5886 16.2883 17.4142 17.8864 17.1599C19.682 16.8742 21.1562 15.5795 21.6492 13.8225C22.2214 11.782 20.8792 9.31158 18.6155 9.33294L18.6147 9.333ZM19.2697 13.1376C19.271 13.1327 19.2533 13.2004 19.2441 13.2403C19.2308 13.278 19.2082 13.3437 19.2095 13.3396C19.15 13.4815 19.0812 13.6168 19.0042 13.7495C19.0042 13.7495 19.0042 13.7503 19.0035 13.7512C18.9728 13.7926 18.9414 13.834 18.909 13.8739C18.8348 13.9656 18.7546 14.0521 18.6709 14.1356C18.6706 14.1308 18.5373 14.2459 18.5008 14.2724C18.3943 14.3496 18.2827 14.4206 18.1682 14.4847C18.1154 14.5068 18.0627 14.5297 18.0098 14.5502C17.9001 14.5923 17.7891 14.6265 17.6771 14.6584C17.7325 14.6393 17.4815 14.6937 17.4188 14.6997C17.3061 14.7108 17.1946 14.7145 17.0819 14.7144C17.036 14.7088 16.9892 14.7025 16.9432 14.6953C16.8301 14.6768 16.7196 14.6509 16.6089 14.621C16.6624 14.6316 16.4177 14.5478 16.3681 14.5241C16.2657 14.476 16.1668 14.4212 16.0693 14.3632C16.0264 14.3326 15.9844 14.3019 15.9429 14.2695C15.8483 14.1953 15.7596 14.115 15.6738 14.0305C15.7068 14.057 15.5437 13.8722 15.5136 13.8295C15.4807 13.7821 15.4502 13.7338 15.4189 13.6855C15.4198 13.6871 15.3941 13.6392 15.3759 13.6084C15.3617 13.5758 15.338 13.523 15.3389 13.5245C15.3182 13.4683 15.2968 13.4138 15.2777 13.3575C15.2586 13.3011 15.2419 13.2446 15.2251 13.1874C15.2083 13.1309 15.2013 13.1105 15.1993 13.1043C15.2013 13.1097 15.2077 13.1213 15.2017 13.0705C15.1871 12.9522 15.1756 12.8344 15.172 12.7146C15.171 12.6658 15.17 12.6162 15.1713 12.5673C15.1723 12.5576 15.1745 12.5446 15.1765 12.5277C15.1915 12.4097 15.2121 12.2929 15.2391 12.1773C15.2792 12.0088 15.2735 12.0292 15.3449 11.8736C15.5329 11.4665 15.8548 11.1012 16.2832 10.8654C16.6624 10.6571 17.1179 10.4883 17.5598 10.4566C17.5539 11.0345 17.9228 11.4435 18.4687 11.6087C18.2957 11.5568 18.548 11.6464 18.5999 11.6684C18.6517 11.6904 18.7035 11.7116 18.754 11.7369C18.7689 11.7439 18.8355 11.7833 18.8746 11.8046C18.8965 11.8215 18.9201 11.839 18.9227 11.8413C18.9637 11.88 19.007 11.9171 19.0489 11.9566C19.0498 11.9573 19.0506 11.9581 19.0515 11.9588C19.0912 12.0121 19.1278 12.0672 19.1674 12.1205C19.1922 12.1548 19.2069 12.1706 19.2153 12.1772C19.217 12.1891 19.2216 12.2096 19.2319 12.2433C19.2537 12.3154 19.2809 12.3832 19.3011 12.4563C19.3016 12.4634 19.3029 12.4706 19.3043 12.4793C19.3129 12.5451 19.3167 12.6105 19.3229 12.6766C19.3228 12.6742 19.3247 12.7365 19.3267 12.7764C19.3238 12.8151 19.32 12.8746 19.32 12.8746C19.307 12.9628 19.2891 13.0489 19.2712 13.1359L19.2697 13.1376Z" fill="#F8F9FA"/>
<path d="M35.2598 33.1729C34.9741 32.1951 34.1624 31.4614 33.2969 30.987C32.4181 30.5047 31.3799 30.2441 30.3883 30.1365C29.2647 30.0149 27.9913 29.967 26.9479 30.4548C25.9224 30.9349 26.1784 32.4145 27.3535 32.4172C28.1125 32.4194 28.9613 32.2784 29.6605 32.3272C30.3804 32.377 31.2023 32.5477 31.7641 32.7799C31.9253 32.8463 32.0839 32.9209 32.2374 33.0039C32.3055 33.0408 32.3729 33.0793 32.4388 33.1195C32.398 33.0952 32.2986 33.01 32.4841 33.15C32.6055 33.2416 32.7185 33.3386 32.8304 33.4421C32.997 33.597 32.8903 33.5108 32.8604 33.4713C32.9192 33.5472 32.9726 33.6244 33.023 33.7057C32.9931 33.6662 33.0664 33.8348 33.1042 33.9307C33.0866 33.9303 33.1098 34.217 33.1247 34.1439C33.0941 34.4255 32.9723 34.6951 32.8587 34.852C32.4952 35.3531 31.8461 35.7461 31.3334 35.9981C30.5642 36.3755 29.7671 36.6963 28.9574 36.9739C27.3863 37.5114 25.7927 37.8759 24.1878 38.1587C20.6482 38.7826 17.0616 39.1231 13.47 39.2325C11.9198 39.28 10.5439 39.285 9.0691 39.0301C7.70996 38.7952 6.30041 38.3877 5.27495 37.5216C4.77915 37.1022 4.30869 36.5769 4.37765 35.8954C4.43241 35.3534 4.86363 34.8035 5.317 34.4563C5.97133 33.9557 6.74287 33.6351 7.53183 33.4149C8.44771 33.1595 9.39976 33.1698 10.3164 32.9359C10.6671 32.8465 10.6785 32.3012 10.3628 32.1607C9.47494 31.7663 8.47686 31.8401 7.53808 32.0194C6.62372 32.1939 5.74123 32.4814 4.9245 32.9326C3.41561 33.766 2.25378 35.2903 2.67965 37.0857C3.09186 38.8227 4.80719 39.9592 6.35429 40.5974C8.05849 41.3007 9.92058 41.486 11.7467 41.5345C15.7575 41.64 19.8181 41.2247 23.7687 40.5609C25.7068 40.2347 27.6447 39.8366 29.5126 39.2134C30.4367 38.9046 31.3425 38.5393 32.2155 38.1043C33.0768 37.6741 33.9425 37.1803 34.5457 36.4054C35.2647 35.4822 35.5963 34.3186 35.2614 33.1728L35.2598 33.1729Z" fill="#F8F9FA"/>
</svg>
