<svg width="41" height="40" viewBox="0 0 41 40" fill="none" xmlns="http://www.w3.org/2000/svg">
<g clip-path="url(#clip0_2856_1705)">
<path d="M10.3664 25.4258C9.36203 24.5858 8.15165 24.1619 6.83828 24.3351C5.4786 24.5148 4.23149 25.1846 3.18718 26.0541C2.17002 26.9012 1.56802 28.0669 1.51293 29.393C1.46263 30.6066 1.79077 31.8801 2.16123 33.0274C2.58199 34.3288 3.15604 35.591 3.8802 36.7511C4.24028 37.3276 4.63868 37.8785 5.06183 38.4102C5.50415 38.9651 5.91293 39.484 6.59397 39.7379C6.70814 39.7803 6.82311 39.7659 6.92211 39.7164C7.00275 39.7818 7.09377 39.8369 7.19277 39.8769C7.66383 40.0669 8.34806 39.9319 8.58279 39.421C8.84866 38.8437 9.176 38.2872 9.46503 37.7196C9.75804 37.1455 10.0726 36.5834 10.3816 36.0182C11.0283 34.8341 11.6375 33.6102 11.996 32.3032C12.6491 29.9248 12.3696 27.1016 10.3656 25.4258H10.3664ZM9.92091 30.0142C9.90415 30.5842 9.81153 31.0401 9.6295 31.6501C9.28858 32.7934 8.74726 33.7874 8.15964 34.8836C7.86662 35.4306 7.56962 35.9759 7.29417 36.5323C7.02431 37.0777 6.8263 37.6182 6.65624 38.1882C6.56363 38.0677 6.46622 37.9463 6.36722 37.8194C6.04307 37.4018 5.74447 36.9627 5.46662 36.5132C4.92131 35.6325 4.45026 34.7 4.08938 33.7284C3.73489 32.7751 3.44826 31.7755 3.30375 30.7679C3.17201 29.8465 3.25505 28.8198 3.9257 28.1204C4.56203 27.4569 5.55285 26.989 6.44467 26.7168C6.61073 26.6665 6.86702 26.5978 6.98918 26.5795C7.1289 26.5587 7.2774 26.5571 7.41872 26.5595C7.4275 26.5595 7.74287 26.597 7.69736 26.5826C7.78119 26.6002 7.86503 26.6194 7.94726 26.6441C7.95924 26.6473 8.15085 26.7184 8.15485 26.7152C8.30894 26.7878 8.45584 26.8765 8.59716 26.9715C8.55964 26.9491 8.75525 27.0952 8.76483 27.1048C8.84786 27.1791 8.9277 27.2573 9.00435 27.3387C9.06503 27.4026 9.12331 27.4689 9.18 27.5375C9.18239 27.5463 9.30614 27.7172 9.30934 27.7228C9.41393 27.8824 9.49856 28.0509 9.59117 28.2178C9.60794 28.2473 9.62071 28.2697 9.6303 28.2856C9.63588 28.3032 9.64387 28.3248 9.65425 28.3535C9.70614 28.4964 9.75485 28.6401 9.79477 28.7862C9.82431 28.8964 9.84586 29.0074 9.87221 29.1176C9.88099 29.1551 9.88738 29.1807 9.89297 29.1982C9.89377 29.223 9.89616 29.2573 9.89936 29.3052C9.91772 29.5407 9.9265 29.7763 9.92012 30.0134L9.92091 30.0142Z" fill="#F8F9FA"/>
<path d="M8.14642 30.6616C8.12885 30.5291 8.11129 30.3973 8.09293 30.2648C8.02187 30.0125 7.89412 29.793 7.70969 29.6069C7.66179 29.5494 7.63305 29.5423 7.54362 29.4736C7.44941 29.3802 7.33764 29.3147 7.20989 29.2788C7.14921 29.2389 7.08454 29.2125 7.01588 29.1997C6.88175 29.1814 6.74762 29.1638 6.61269 29.1455H6.59831C6.58394 29.1455 6.57037 29.1455 6.556 29.1455C6.34762 29.1375 6.15281 29.1814 5.97237 29.2764C5.78474 29.3379 5.62187 29.4417 5.48454 29.5902C5.33684 29.7275 5.23225 29.8904 5.17077 30.078C5.07576 30.2584 5.03265 30.4532 5.03983 30.6616C5.0582 30.7958 5.07576 30.9299 5.09412 31.0648C5.16598 31.3219 5.29612 31.5447 5.48374 31.7339L5.79033 31.971C6.02666 32.1083 6.28215 32.177 6.5552 32.1778C6.71169 32.1778 6.84582 32.1762 7.01428 32.1235L7.02786 32.1211L7.38953 31.9686C7.56837 31.8744 7.61947 31.8225 7.70889 31.7171C7.8542 31.5822 7.9572 31.4217 8.01708 31.2373C8.11049 31.0592 8.1536 30.8676 8.14562 30.6624L8.14642 30.6616Z" fill="#F8F9FA"/>
<path d="M38.4972 0.298314C36.938 -0.336416 35.025 0.239232 33.9799 1.53584C33.0226 2.72386 32.9084 4.37177 33.4426 5.77057C33.7707 6.63125 34.3352 7.38175 34.9731 8.03803C35.2829 8.3566 35.6086 8.66638 35.9663 8.93145C36.2921 9.17256 36.6106 9.4576 37.0082 9.53744C37.2182 9.6564 37.5 9.6564 37.7252 9.5542C38.1787 9.34821 38.3551 8.82366 38.5667 8.4045C38.7887 7.96698 39.0194 7.53424 39.2509 7.10151C39.6813 6.29512 40.1292 5.46558 40.3424 4.56977C40.736 2.91388 40.1803 0.983344 38.4972 0.298314ZM38.5803 4.38294C38.3879 5.14462 38.0278 5.84402 37.6901 6.54821C37.5 6.94422 37.306 7.33863 37.1072 7.73065C37.033 7.87755 36.9563 8.01728 36.8901 8.1562C36.7072 7.96777 36.5244 7.78175 36.336 7.59811C35.8793 7.15261 35.4505 6.67835 35.1144 6.13304C34.542 5.2053 34.2018 3.97576 34.6673 2.92905C34.9004 2.4053 35.3731 2.06119 35.912 1.9055C36.4549 1.74901 37.0705 1.64921 37.6238 1.80091C38.7392 2.1075 38.8174 3.44243 38.5803 4.38135V4.38294Z" fill="#F8F9FA"/>
<path d="M37.2249 3.81302C37.1937 3.70205 37.1378 3.60544 37.0564 3.524L36.9239 3.42181C36.8217 3.36272 36.7115 3.33239 36.5933 3.33239C36.5031 3.32919 36.4193 3.34756 36.341 3.38907C36.2596 3.41542 36.1893 3.46093 36.1303 3.5248C36.0664 3.58388 36.0209 3.65414 35.9945 3.73558C35.9538 3.81382 35.9346 3.89765 35.9378 3.98787C35.9458 4.04616 35.9538 4.10364 35.961 4.16193C35.9921 4.2729 36.048 4.36951 36.1295 4.45095L36.262 4.55314C36.3642 4.61223 36.4744 4.64256 36.5925 4.64256C36.6828 4.64576 36.7666 4.6274 36.8448 4.58588C36.9263 4.55953 36.9965 4.51402 37.0556 4.45015C37.1195 4.39107 37.165 4.32081 37.1913 4.23937C37.2321 4.16113 37.2512 4.0773 37.248 3.98708C37.24 3.92879 37.2321 3.87131 37.2249 3.81302Z" fill="#F8F9FA"/>
<path d="M34.7197 22.0497C34.1025 19.4037 31.6658 17.8948 29.2378 17.1355C26.5536 16.2964 23.7025 16.1127 20.9097 15.9954C18.2023 15.882 15.4606 15.8716 12.8586 15.2696C12.2359 15.1251 11.6091 14.9383 11.0933 14.6732C10.5273 14.3818 10.239 14.179 9.84304 13.7511C9.53485 13.4181 9.32408 13.062 9.20751 12.5966C9.15481 12.3866 9.13645 12.2341 9.14364 11.9403C9.15002 11.6824 9.18356 11.4796 9.27937 11.1562C9.92208 8.9782 12.5185 7.69756 14.5281 6.82491C16.7652 5.85405 19.1564 5.35984 21.5564 5.24726C24.0323 5.13069 26.437 5.34946 28.7979 5.96263C29.4007 6.11912 30.0187 6.20774 30.6295 6.3283C31.4941 6.49916 32.0722 5.33988 31.2498 4.85764C29.0047 3.54267 26.263 3.08279 23.6889 3.01493C21.1165 2.94786 18.5744 3.35904 16.1097 4.0776C13.6626 4.79137 11.1061 5.8796 9.17078 7.57461C7.14044 9.35185 6.07138 12.4425 7.78316 14.8105C9.49653 17.1802 12.4826 17.7016 15.2027 18.0337C17.982 18.373 20.7883 18.3602 23.5748 18.6149C24.9161 18.7371 26.1616 18.9159 27.5285 19.2696C28.1368 19.4269 28.7341 19.6153 29.3201 19.8405C29.3408 19.8485 29.3544 19.8532 29.364 19.8572C29.4191 19.8812 29.4742 19.9059 29.5285 19.9307C29.6594 19.9906 29.7887 20.0536 29.9165 20.1199C30.1887 20.2604 30.453 20.4145 30.7069 20.587C30.7428 20.6117 30.881 20.7115 30.8897 20.7155C30.9816 20.7898 31.0718 20.8672 31.1588 20.9471C31.2618 21.0421 31.3616 21.1403 31.4566 21.2425C31.5053 21.2944 31.6889 21.5315 31.6642 21.4892C31.8023 21.6896 31.9269 21.898 32.0307 22.1175C32.0283 22.1207 32.0929 22.282 32.1073 22.3283C32.1576 22.4824 32.1983 22.6397 32.2319 22.7986C32.2446 22.86 32.255 22.9215 32.2654 22.9838C32.2654 22.9878 32.2654 22.991 32.2654 22.9958C32.267 23.1379 32.2854 23.2808 32.2862 23.4237C32.2869 23.5674 32.2814 23.7103 32.271 23.854C32.2686 23.8884 32.2646 23.9227 32.2614 23.957C32.2582 23.977 32.247 24.0624 32.2366 24.1191C32.1864 24.3834 32.1185 24.6445 32.0323 24.9C32.0059 24.9782 31.9772 25.0556 31.9476 25.1331C31.8838 25.2752 31.8135 25.4149 31.7376 25.5515C31.6674 25.6784 31.5931 25.8022 31.5133 25.9235C31.4806 25.973 31.356 26.1455 31.3249 26.1902C31.3017 26.2173 31.2722 26.2532 31.2706 26.2556C31.2155 26.3187 31.162 26.3818 31.1053 26.4441C31.0071 26.5519 30.9049 26.6564 30.7995 26.7578C30.6941 26.8592 30.5863 26.9574 30.4754 27.0532C30.4195 27.1012 30.362 27.1483 30.3053 27.1946C30.3053 27.1946 30.3045 27.1946 30.3037 27.1962C30.0498 27.3822 29.7863 27.5554 29.5133 27.7119C29.2754 27.8485 29.0311 27.9746 28.782 28.0896C28.7652 28.0976 28.6869 28.1327 28.6414 28.1534C28.6127 28.1654 28.5832 28.1782 28.5792 28.1798C28.4211 28.2413 28.263 28.3004 28.1033 28.3554C27.4885 28.567 26.8554 28.7203 26.2159 28.8337C26.0418 28.8648 25.867 28.8928 25.6913 28.9175C25.685 28.9183 25.681 28.9191 25.6754 28.9199C25.6634 28.9207 25.6418 28.9231 25.6059 28.9271C25.5309 28.9359 25.455 28.9447 25.38 28.9527C25.0023 28.9926 24.6231 29.0221 24.2438 29.0437C23.5341 29.0844 22.8235 29.098 22.1129 29.1059C20.683 29.1211 19.249 29.1107 17.8239 29.2433C17.9365 29.1507 18.0466 29.062 18.1528 28.9814C18.6526 28.599 19.174 28.27 19.6347 27.8389C20.3476 27.1714 19.6091 25.9131 18.679 26.1966C17.3424 26.6045 16.073 27.5858 15.0223 28.4864C13.9404 29.4133 12.6454 30.6125 13.0382 32.1982C13.2378 33.0053 13.8558 33.5858 14.6343 33.8357C15.2482 34.0329 15.9245 34.0113 16.56 34.0888C16.5153 34.0848 16.9049 34.1423 16.956 34.1511C17.0989 34.1758 17.2418 34.203 17.3848 34.2317C17.7177 34.2988 18.0474 34.3778 18.3748 34.4672C19.0766 34.6596 19.7528 34.9231 20.4506 35.1259C21.8311 35.5275 22.6917 33.5131 21.4311 32.801C20.7987 32.4441 20.1097 32.187 19.4031 31.9938C19.6722 31.9802 19.942 31.969 20.2111 31.9602C21.6315 31.9131 23.055 31.9147 24.473 31.7998C27.2738 31.573 30.0179 30.8888 32.2167 29.058C34.2327 27.379 35.3273 24.6437 34.7221 22.0513L34.7197 22.0497Z" fill="#F8F9FA"/>
</g>
<defs>
<clipPath id="clip0_2856_1705">
<rect width="40" height="40" fill="white" transform="translate(0.5)"/>
</clipPath>
</defs>
</svg>
