<svg width="43" height="43" viewBox="0 0 43 43" fill="none" xmlns="http://www.w3.org/2000/svg">
<g clip-path="url(#clip0_2856_1710)">
<path d="M41.2253 18.3398C40.9255 17.5457 40.3509 16.8692 39.8467 16.1945C39.3885 15.5822 38.9176 14.9794 38.4357 14.3855C38.4313 14.3796 38.4261 14.3736 38.4217 14.3685C38.4786 14.2524 38.5186 14.1264 38.5408 13.9927C38.7555 12.6847 38.9637 11.3779 39.1381 10.0639C39.2212 9.435 39.318 8.80709 39.3654 8.17413C39.3891 7.85805 39.4129 7.54196 39.4358 7.22582C39.4422 7.13344 39.4529 7.03734 39.4637 6.94045C39.6111 6.8123 39.726 6.64586 39.7872 6.44605C39.9673 5.85117 39.6997 5.07613 39.0442 4.89423C37.7282 4.53009 36.3611 4.22319 34.999 4.10714C34.3124 4.04872 33.58 3.9807 32.8969 4.07859C32.6575 4.11308 32.3194 4.18788 32.033 4.32312C31.7803 4.37748 31.5385 4.55026 31.4308 4.78524C31.1504 5.3963 31.1529 6.17282 31.0245 6.82974C31.0222 6.84078 31.0197 6.85261 31.0174 6.86365C30.1333 6.12634 29.2245 5.4225 28.2877 4.76394C27.518 4.2227 26.726 3.72552 25.8822 3.30556C25.5094 3.12022 25.1116 2.99476 24.7079 2.8953C24.35 2.80704 24.0018 2.81791 23.6487 2.85564C23.326 2.30805 22.6605 2.15347 22.0876 2.39113C16.5707 4.68173 11.3306 7.59115 6.45269 11.0333C5.77915 11.5089 5.13429 12.0208 4.49227 12.5378C4.16149 12.8044 3.86199 13.1044 3.55947 13.4017C3.24485 13.7119 3.03645 14.0711 2.80931 14.4466C2.61655 14.7652 2.86994 15.3192 3.29802 15.1834C3.62216 15.0805 3.97319 15.005 4.28026 14.86C4.60882 14.7053 4.93581 14.4928 5.24674 14.3041C5.31778 14.261 5.38808 14.2171 5.45844 14.1724C5.41321 14.3957 5.37111 14.6201 5.33601 14.8473C5.23312 15.506 5.13354 16.1634 5.05364 16.8253C4.97648 17.4594 4.89938 18.0927 4.82223 18.7267C4.73788 19.418 4.72492 20.2214 5.0447 20.856C5.34617 21.455 6.13915 21.4688 6.5277 20.9597C6.75678 20.6596 6.80598 20.3909 6.91132 20.0405C7.02107 19.6729 7.09051 19.3552 7.11604 18.9672C7.15839 18.3042 7.20154 17.6414 7.2439 16.9784C7.28527 16.3411 7.30815 15.7048 7.32716 15.0666C7.34777 14.3942 7.31448 13.7371 7.3037 13.0673C7.30335 13.0265 7.29971 12.987 7.29516 12.949C8.45968 12.1821 9.61081 11.4006 10.8021 10.674C13.2985 9.15019 15.8798 7.76359 18.5292 6.52423C20.0475 5.81404 21.5888 5.15268 23.1484 4.53902C23.262 4.49414 23.361 4.42903 23.4458 4.34852C23.5693 4.4484 23.6946 4.5452 23.8307 4.62435C24.1476 4.80818 24.4565 5.00266 24.7708 5.1903C25.4353 5.58812 26.0603 6.03521 26.6652 6.5177C27.2474 6.9826 27.8156 7.46413 28.3872 7.94189C28.6724 8.17953 28.9541 8.42012 29.2348 8.66305C29.8611 9.20706 30.6326 10.0077 31.5366 9.95731C32.0693 9.92733 32.5447 9.54999 32.7814 9.07192C33.1198 8.38728 32.9087 7.68581 32.9392 6.96442C32.9506 6.6859 32.9684 6.39821 32.9709 6.11026C33.0689 6.12752 33.164 6.14138 33.2528 6.15398C33.8336 6.23702 34.4115 6.31665 34.9896 6.4163C35.9362 6.57933 36.849 6.78002 37.7746 7.04884C37.7106 7.30047 37.6458 7.55206 37.5817 7.80369C37.409 8.47751 36.2156 15.895 36.2407 15.9255C36.2357 15.9516 36.2298 15.9776 36.2255 16.0053C36.0818 17.0181 35.9758 18.0304 35.8766 19.0487C35.778 20.059 35.6764 21.0876 35.6886 22.1033C35.6963 22.7033 36.0858 23.2451 36.7198 23.2895C37.3538 23.3338 37.8234 22.8552 37.906 22.2583C38.0443 21.2524 38.071 20.2194 38.0987 19.2041C38.1068 18.9173 38.1132 18.6312 38.1196 18.3451C38.5239 18.8928 38.9286 19.423 39.451 19.8837C39.8491 20.2341 40.5639 20.1192 40.9346 19.7969C41.3691 19.4191 41.4201 18.8512 41.2269 18.3399L41.2253 18.3398Z" fill="#F8F9FA"/>
<path d="M21.4926 34.057C21.5012 33.9343 21.4781 33.8182 21.4241 33.7088C21.3809 33.5369 21.2978 33.3855 21.1742 33.2536C21.0876 33.1763 21.0009 33.0998 20.915 33.0225C20.915 33.0225 20.915 33.0225 20.9142 33.0225C20.9142 33.0225 20.9134 33.0224 20.9126 33.0224C20.8185 32.9606 20.7188 32.9096 20.612 32.8701C20.6096 32.8691 20.6065 32.8673 20.6042 32.8663C20.546 32.8407 20.624 32.8701 20.4236 32.8281C20.2464 32.7749 20.0659 32.7703 19.8819 32.8142C19.7712 32.8521 19.6597 32.8899 19.549 32.9278C19.4525 32.9923 19.356 33.056 19.2603 33.1205C19.183 33.2072 19.1065 33.2938 19.0292 33.3797L18.8704 33.6935C18.8013 33.8696 18.7807 34.049 18.8088 34.2319C18.8002 34.3545 18.8233 34.4706 18.8773 34.58C18.9011 34.6969 18.9523 34.8005 19.0308 34.8909C19.0842 34.997 19.159 35.0839 19.2567 35.1508C19.379 35.2794 19.527 35.3714 19.701 35.4251C19.8201 35.4495 19.9384 35.4746 20.0576 35.4989C20.1789 35.4914 20.2996 35.483 20.421 35.4755C20.5317 35.4376 20.6431 35.3998 20.7538 35.3619C20.8504 35.2974 20.9469 35.2337 21.0426 35.1692C21.1834 35.0558 21.2868 34.9166 21.3535 34.7531C21.4222 34.6515 21.4612 34.5398 21.4697 34.4179C21.5108 34.2999 21.5192 34.1805 21.4949 34.0579L21.4926 34.057Z" fill="#F8F9FA"/>
<path d="M31.5214 26.1064C31.4865 26.0784 31.4819 26.0764 31.6045 26.1771C31.6045 26.1771 31.6029 26.1762 31.603 26.1754C31.5758 26.1526 31.5485 26.1299 31.5214 26.1064Z" fill="#F8F9FA"/>
<path d="M36.9853 29.9586C36.6056 28.2 35.8346 26.5438 34.6712 25.1667C33.6429 23.9503 32.3439 22.9663 30.9627 22.1854C29.8017 21.5287 28.5893 20.9781 27.3578 20.4702C28.0965 18.8228 28.5869 17.0971 28.3308 15.2432C28.0287 13.0507 26.5181 11.1562 24.3364 10.6171C22.2035 10.0902 19.7007 10.4234 17.7476 11.4225C15.7804 12.4287 14.188 14.3814 14.0804 16.6525C14.006 18.2208 14.607 19.617 15.4478 20.8812C12.8898 21.0312 10.3522 21.703 8.34416 23.3497C5.54316 25.647 4.40848 29.3637 4.36537 32.8758C4.3512 34.0514 4.47323 35.2364 4.63037 36.3999C4.78976 37.5772 5.02229 38.7155 5.47775 39.8134C5.72849 40.4168 6.63224 40.1743 6.68288 39.576C6.84183 37.6807 6.43158 35.7759 6.42936 33.8733C6.42656 32.1852 6.55391 30.5814 7.07242 29.0266C7.53322 27.6446 8.23815 26.3653 9.30465 25.409C10.3601 24.4623 11.6317 23.9038 12.9884 23.6049C13.4135 23.5113 13.8442 23.4406 14.2768 23.3892C14.485 23.3646 14.6929 23.3455 14.9013 23.3288C14.9118 23.328 14.948 23.3257 14.9784 23.3246C15.0957 23.3192 15.2129 23.3138 15.33 23.31C16.2074 23.2841 17.0848 23.3271 17.9584 23.413C19.0855 23.5246 19.6637 22.146 18.9983 21.3263C18.7301 20.9954 18.4636 20.6631 18.209 20.3211C18.0934 20.1658 17.9795 20.0089 17.869 19.8499C17.853 19.8264 17.7966 19.7408 17.7727 19.7048C17.7143 19.6126 17.6559 19.5205 17.6 19.427C17.4066 19.1029 17.2299 18.768 17.083 18.42C17.0411 18.321 17.0009 18.2206 16.964 18.1187C16.9596 18.1008 16.954 18.0788 16.9463 18.0511C16.8902 17.8342 16.8373 17.6185 16.8024 17.3967C16.7906 17.3247 16.7821 17.252 16.7743 17.1803C16.7725 17.1489 16.7698 17.1079 16.7712 17.088C16.7817 16.8798 16.7888 16.6754 16.8153 16.4684C16.816 16.4581 16.8174 16.4501 16.8188 16.4414C16.8482 16.329 16.8792 16.2176 16.9166 16.1065C16.9428 16.0291 16.9714 15.9519 17.0024 15.8756C17.0227 15.8258 17.1017 15.6577 17.0939 15.6651C17.1793 15.5094 17.2754 15.3593 17.3776 15.2144C17.4255 15.1465 17.475 15.0795 17.526 15.0142C17.5383 14.9983 17.6937 14.8259 17.6889 14.8255C17.782 14.7304 17.8773 14.637 17.978 14.5488C18.0718 14.4665 18.1678 14.3868 18.2667 14.3105C18.2946 14.2892 18.4519 14.1802 18.4639 14.169C18.7752 13.9747 19.1047 13.8073 19.4427 13.6668C19.5531 13.6209 19.665 13.5767 19.7775 13.5366C19.7971 13.5307 19.82 13.5243 19.8494 13.516C20.083 13.4483 20.3163 13.3862 20.5544 13.3348C20.9655 13.2459 21.3793 13.1892 21.7977 13.1464C21.8243 13.1434 21.8444 13.1417 21.863 13.1398C21.981 13.1336 22.0989 13.1306 22.2166 13.1293C22.4368 13.1279 22.6573 13.1345 22.8761 13.153C23.0599 13.1682 23.2466 13.1885 23.4292 13.2213C23.4606 13.2291 23.522 13.2446 23.5439 13.2517C23.6667 13.2923 23.7918 13.3234 23.9136 13.3672C23.9823 13.392 24.2798 13.5321 24.2378 13.5027C24.3302 13.5556 24.4215 13.6116 24.5085 13.6729C24.5489 13.7013 24.7231 13.8432 24.7024 13.8177C24.7998 13.9126 24.8904 14.0141 24.9767 14.1194C25.0224 14.1754 25.064 14.2328 25.1063 14.291C25.12 14.3127 25.1344 14.3361 25.1414 14.3502C25.2284 14.5252 25.3181 14.6955 25.3977 14.874C25.4088 14.8988 25.4178 14.9178 25.4248 14.9335C25.4588 15.0423 25.4895 15.1525 25.5161 15.2632C25.5669 15.4765 25.5999 15.6901 25.6296 15.9066C25.6324 15.9244 25.6346 15.939 25.636 15.9527C25.6398 16.0706 25.6411 16.1892 25.6384 16.3074C25.6323 16.5431 25.6111 16.7785 25.5779 17.0123C25.567 17.0884 25.5537 17.1643 25.5404 17.2402C25.5362 17.2423 25.4692 17.537 25.4585 17.5762C25.3172 18.097 25.1266 18.6023 24.9088 19.0953C24.8062 19.3274 24.6981 19.5567 24.5846 19.7833C24.5671 19.8165 24.53 19.8883 24.5245 19.8992C24.4315 20.0727 24.3401 20.2464 24.2456 20.4191C23.7974 21.2433 24.0338 22.1891 24.946 22.5578C25.6341 22.8356 26.3203 23.1173 26.999 23.4161C27.3219 23.5587 27.6423 23.7044 27.9614 23.8563C28.1179 23.9305 28.2726 24.007 28.4281 24.0843C28.4381 24.0898 28.4489 24.0953 28.4621 24.1018C28.5532 24.1498 28.6442 24.1978 28.7353 24.2466C29.3639 24.5851 29.9776 24.9537 30.561 25.3667C30.8569 25.5755 31.1466 25.7934 31.4249 26.025C31.4559 26.0512 31.4869 26.0773 31.5179 26.1035C31.5422 26.1228 31.58 26.1543 31.598 26.1715C31.598 26.1715 31.598 26.1715 31.5987 26.1724C31.6017 26.175 31.6048 26.1776 31.6078 26.1802C31.6048 26.1776 31.6032 26.1767 31.6002 26.1741C31.7452 26.3099 31.8877 26.4463 32.0258 26.5888C32.2625 26.8327 32.4863 27.0884 32.6957 27.356C32.8029 27.4931 32.9036 27.633 33.005 27.7746C33.0079 27.7788 33.0092 27.7821 33.0121 27.7871C33.0803 27.8983 33.1494 28.0096 33.2142 28.1238C33.3925 28.4356 33.5508 28.7588 33.6901 29.0902C33.7251 29.1727 33.7585 29.2559 33.7911 29.3398C33.7863 29.3283 33.846 29.4933 33.8723 29.5632C33.8874 29.6115 33.9058 29.668 33.9103 29.6835C33.9493 29.8127 33.9859 29.9425 34.0208 30.073C34.1181 30.444 34.1958 30.82 34.255 31.1987C34.2833 31.3775 34.3076 31.5569 34.327 31.7367C34.3375 31.8271 34.3464 31.9174 34.3545 32.0076C34.3595 32.0615 34.3686 32.2295 34.3715 32.2561C34.4019 33.069 34.3716 33.88 34.2822 34.6893C34.2268 35.1953 34.15 35.6989 34.0589 36.2C34.0407 36.3003 34.0209 36.4006 34.0027 36.5002L33.973 36.6502C34.0164 36.4419 33.9958 36.5421 33.9112 36.95C33.8641 37.1892 33.8217 37.4295 33.7721 37.6686C33.7663 37.6946 33.7592 37.7285 33.7487 37.775C33.7215 37.9003 33.6943 38.0257 33.6664 38.1502C33.6105 38.4 33.5522 38.6504 33.4932 38.8992C33.3694 39.4228 33.2392 39.9443 33.1091 40.4667C32.942 41.1385 33.1893 41.9401 33.9206 42.1617C34.5907 42.3646 35.3924 42.0589 35.6156 41.3502C36.7759 37.6681 37.819 33.8305 36.983 29.9568L36.9853 29.9586Z" fill="#F8F9FA"/>
<path d="M28.0125 30.017C28.0032 30.0139 27.9938 30.0109 27.9844 30.0078C27.993 30.0108 28.0024 30.0139 28.0125 30.017Z" fill="#F8F9FA"/>
<path d="M28.0474 30.0413C28.0474 30.0413 28.0421 30.037 28.0391 30.0352C28.0391 30.0352 28.0391 30.0352 28.039 30.0367C28.042 30.0394 28.0443 30.0403 28.0473 30.0429C28.0473 30.0429 28.0473 30.0429 28.0474 30.0421L28.0474 30.0413Z" fill="#F8F9FA"/>
<path d="M30.6186 29.4776C30.2271 27.9464 28.8897 27.351 27.4312 27.2402C24.6957 27.0329 21.9045 27.0843 19.1792 27.3939C17.8416 27.5461 16.5103 27.7563 15.1909 28.025C13.9081 28.2859 12.2875 28.6392 11.9186 30.0924C11.7431 30.7821 11.7531 31.4983 11.7285 32.2049C11.7 32.9896 11.6796 33.7741 11.6663 34.5584C11.6531 35.3202 11.6666 36.0775 11.6998 36.8385C11.7177 37.2455 11.6848 37.7058 11.7633 38.1051C11.8051 38.3201 11.8723 38.5377 11.9453 38.7533C11.7898 38.7681 11.635 38.7836 11.4813 38.7961C10.7656 38.8557 10.6691 40.0871 11.3806 40.2361C12.0155 40.3693 12.6537 40.5372 13.2955 40.6301C13.9206 40.7203 14.5544 40.7678 15.1819 40.8357C16.4663 40.9759 17.7524 41.069 19.0406 41.1655C21.5884 41.3557 24.1372 41.5315 26.6869 41.7074C27.336 41.7528 27.9979 41.226 28.0154 40.5525C28.0256 40.1435 27.8498 39.7502 27.5512 39.4988C27.5588 39.4593 27.5664 39.4199 27.5747 39.3812C27.577 39.3702 27.5795 39.3575 27.583 39.3418C27.6188 39.1738 27.6569 39.006 27.6958 38.8391C27.8465 38.1941 28.0202 37.554 28.2148 36.9217C28.5986 35.68 29.0663 34.4633 29.616 33.2852C29.6782 33.1519 29.7411 33.0186 29.8056 32.8863C29.8224 32.8523 29.9278 32.6379 29.9243 32.6425C30.0964 32.2992 30.2825 31.9608 30.4212 31.6024C30.6743 30.947 30.7968 30.1688 30.6195 29.4769L30.6186 29.4776ZM19.2028 38.8222C17.9386 38.7602 16.6763 38.6944 15.4106 38.6755C14.7782 38.6665 14.1442 38.6454 13.5117 38.6476C13.4653 38.6475 13.4196 38.6491 13.3731 38.6499C13.4888 38.2314 13.5676 37.8143 13.599 37.3651C13.6427 36.7399 13.7056 36.1152 13.7342 35.4897C13.7906 34.2363 13.8582 32.9837 13.9473 31.7318C13.9661 31.4633 13.992 31.1962 14.0147 30.9289C14.046 30.5605 14.0093 31.143 14.044 30.7845C14.046 30.7558 14.0474 30.7351 14.0485 30.72C14.0561 30.7133 14.0676 30.6989 14.082 30.6759C14.1096 30.6706 14.1406 30.6728 14.1924 30.6652C14.5376 30.6157 14.8856 30.5832 15.2308 30.5345C16.4409 30.363 17.6385 30.1418 18.8559 30.0141C21.1796 29.7708 23.4084 29.6809 25.8174 29.7846C26.3935 29.8096 26.9765 29.8288 27.5503 29.8977C27.5781 29.9013 27.7824 29.9436 27.7898 29.9401C27.8564 29.9608 27.9213 29.9837 27.9877 30.006C27.8455 29.9568 27.9646 29.9707 28.0159 30.0151C28.0183 30.0153 28.0198 30.0162 28.0222 30.0172C28.0222 30.0172 28.0182 30.0161 28.0159 30.0151C28.0205 30.0187 28.0242 30.0229 28.0279 30.0272C28.0321 30.0347 28.0349 30.0405 28.0399 30.0496C28.0402 30.0448 28.0405 30.0417 28.0399 30.0376C28.0391 30.0376 28.0384 30.0367 28.0377 30.0359C28.0377 30.0359 28.037 30.0342 28.0362 30.0342C28.0378 30.0343 28.0385 30.0359 28.0392 30.0368C28.0356 29.8828 28.041 29.9537 28.0476 30.043C28.1434 30.1145 28.1442 30.1145 28.0475 30.0438C28.0517 30.0977 28.0564 30.1572 28.0598 30.1767C28.0076 29.8929 28.0467 30.239 28.0456 30.3005C28.0449 30.3333 28.0457 30.3566 28.0469 30.3735C28.0376 30.392 28.026 30.42 28.0113 30.459C27.9613 30.59 27.92 30.7223 27.8645 30.8521C27.8167 30.964 27.7642 31.0732 27.711 31.1823C27.699 31.2047 27.6552 31.2929 27.6497 31.3029C27.4626 31.6668 27.2794 32.0325 27.1046 32.4029C26.539 33.6007 26.0579 34.8388 25.6645 36.1031C25.361 37.0783 25.0641 38.0972 24.8798 39.1191C22.9877 39.0165 21.0955 38.9162 19.2028 38.823L19.2028 38.8222Z" fill="#F8F9FA"/>
</g>
<defs>
<clipPath id="clip0_2856_1710">
<rect width="40" height="40" fill="white" transform="translate(3.07031 0.144531) rotate(4)"/>
</clipPath>
</defs>
</svg>
