<svg width="18" height="19" viewBox="0 0 18 19" fill="none" xmlns="http://www.w3.org/2000/svg">
<path d="M15.2645 0.261719L2.73548 0.261719C1.22461 0.261719 0 1.48633 0 2.9972L0 15.5267C0 17.0371 1.22461 18.2617 2.73548 18.2617H15.2645C16.7754 18.2617 18 17.0371 18 15.5267V2.9972C18 1.48633 16.7754 0.261719 15.2645 0.261719ZM6.92391 16.4508H4.61386V9.01984H6.92391V16.4508ZM7.11141 6.81562C7.10683 6.85937 7.10058 6.90271 7.09183 6.94604C7.08308 6.98937 7.07266 7.03188 7.05975 7.07396C7.04683 7.11604 7.03225 7.15771 7.01516 7.19813C6.9985 7.23896 6.97974 7.27855 6.95891 7.31772C6.93808 7.35647 6.91558 7.39438 6.89099 7.43105C6.86683 7.4673 6.84058 7.50272 6.81224 7.53689C6.78474 7.57105 6.75516 7.60356 6.72391 7.63439C6.69265 7.66564 6.66015 7.69522 6.6264 7.72314C6.59224 7.75106 6.55682 7.77731 6.52015 7.80189C6.48348 7.82648 6.44598 7.84898 6.40681 7.86981C6.36806 7.89023 6.32806 7.90898 6.28764 7.92606C6.24723 7.94273 6.20556 7.95773 6.16348 7.97023C6.12139 7.98315 6.07847 7.99398 6.03556 8.00231C5.99222 8.01107 5.94847 8.01773 5.90472 8.0219C5.86097 8.02607 5.81722 8.02815 5.77305 8.02815C5.72888 8.02815 5.68513 8.02607 5.64138 8.0219C5.59763 8.01773 5.55388 8.01107 5.51054 8.00231C5.46763 7.99398 5.42513 7.98315 5.38262 7.97023C5.34054 7.95773 5.29929 7.94273 5.25845 7.92606C5.21762 7.90898 5.17804 7.89023 5.13929 7.86981C5.10053 7.84898 5.06262 7.82648 5.02595 7.80189C4.98928 7.77731 4.95386 7.75106 4.92011 7.72314C4.88595 7.69522 4.85345 7.66564 4.82219 7.63439C4.79094 7.60356 4.76178 7.57105 4.73344 7.53689C4.70594 7.50272 4.67969 7.4673 4.65511 7.43105C4.63052 7.39438 4.60802 7.35647 4.58719 7.31772C4.56636 7.27855 4.54761 7.23896 4.53094 7.19813C4.51385 7.15771 4.49927 7.11604 4.48635 7.07396C4.47344 7.03188 4.46302 6.98937 4.45427 6.94604C4.44552 6.90271 4.43927 6.85937 4.4351 6.81562C4.43052 6.77187 4.42844 6.7277 4.42844 6.68353C4.42844 6.63937 4.43052 6.59562 4.4351 6.55186C4.43927 6.50811 4.44552 6.46478 4.45427 6.42144C4.46302 6.37853 4.47344 6.33561 4.48635 6.29352C4.49927 6.25144 4.51385 6.20977 4.53094 6.16894C4.54761 6.12852 4.56636 6.08894 4.58719 6.05019C4.60802 6.01102 4.63052 5.97352 4.65511 5.93685C4.67969 5.90018 4.70594 5.86476 4.73344 5.8306C4.76178 5.79685 4.79094 5.76435 4.82219 5.7331C4.85345 5.70184 4.88595 5.67226 4.92011 5.64434C4.95386 5.61643 4.98928 5.59018 5.02595 5.56601C5.06262 5.54142 5.10053 5.51851 5.13929 5.49767C5.17804 5.47684 5.21762 5.45851 5.25845 5.44142C5.29929 5.42434 5.34054 5.40975 5.38262 5.39684C5.42513 5.38434 5.46763 5.3735 5.51054 5.36475C5.55388 5.35642 5.59763 5.34975 5.64138 5.34559C5.68513 5.341 5.72888 5.33892 5.77305 5.33892C5.81722 5.33892 5.86097 5.341 5.90472 5.34559C5.94847 5.34975 5.99222 5.35642 6.03556 5.36475C6.07847 5.3735 6.12139 5.38434 6.16348 5.39684C6.20556 5.40975 6.24723 5.42434 6.28764 5.44142C6.32806 5.45851 6.36806 5.47684 6.40681 5.49767C6.44598 5.51851 6.48348 5.54142 6.52015 5.56601C6.55682 5.59018 6.59224 5.61643 6.6264 5.64434C6.66015 5.67226 6.69265 5.70184 6.72391 5.7331C6.75516 5.76435 6.78474 5.79685 6.81224 5.8306C6.84058 5.86476 6.86683 5.90018 6.89099 5.93685C6.91558 5.97352 6.93808 6.01102 6.95891 6.05019C6.97974 6.08894 6.9985 6.12852 7.01516 6.16894C7.03225 6.20977 7.04683 6.25144 7.05975 6.29352C7.07266 6.33561 7.08308 6.37853 7.09183 6.42144C7.10058 6.46478 7.10683 6.50811 7.11141 6.55186C7.11558 6.59562 7.11766 6.63978 7.11766 6.68353C7.11766 6.72728 7.11558 6.77187 7.11141 6.81562ZM15.5612 12.1941V16.4508H13.2586C13.2586 16.4508 13.2511 12.6087 13.2511 12.3903C13.2511 12.172 13.1495 11.6566 13.1495 11.6566C12.8807 10.7265 11.9436 10.8903 11.9436 10.8903C11.1444 10.894 10.8903 11.5111 10.8903 11.5111C10.6361 12.0124 10.6707 12.9762 10.6707 12.9762V16.4508H8.37686V9.01984H10.5757V10.0453C10.6048 10.0357 10.624 10.0224 10.624 10.0224C11.9119 8.06565 14.2849 9.13109 14.2849 9.13109C15.7283 9.78944 15.5612 12.1941 15.5612 12.1941Z" fill="#0E1013"/>
</svg>
